<svg width="22" height="22" viewBox="0 0 22 22" fill="none" xmlns="http://www.w3.org/2000/svg">
<path d="M19.3053 4.38983C20.2413 4.38983 21.0002 3.63099 21.0002 2.69492C21.0002 1.75884 20.2413 1 19.3053 1C18.3692 1 17.6104 1.75884 17.6104 2.69492C17.6104 3.63099 18.3692 4.38983 19.3053 4.38983Z" stroke="black" stroke-width="2" stroke-miterlimit="10" stroke-linecap="round" stroke-linejoin="round"/>
<path d="M11.0001 4.38983C11.9362 4.38983 12.695 3.63099 12.695 2.69492C12.695 1.75884 11.9362 1 11.0001 1C10.064 1 9.30518 1.75884 9.30518 2.69492C9.30518 3.63099 10.064 4.38983 11.0001 4.38983Z" stroke="black" stroke-width="2" stroke-miterlimit="10" stroke-linecap="round" stroke-linejoin="round"/>
<path d="M2.69492 4.38983C3.63099 4.38983 4.38983 3.63099 4.38983 2.69492C4.38983 1.75884 3.63099 1 2.69492 1C1.75884 1 1 1.75884 1 2.69492C1 3.63099 1.75884 4.38983 2.69492 4.38983Z" stroke="black" stroke-width="2" stroke-miterlimit="10" stroke-linecap="round" stroke-linejoin="round"/>
<path d="M2.69492 20.9999C3.63099 20.9999 4.38983 20.2411 4.38983 19.305C4.38983 18.3689 3.63099 17.6101 2.69492 17.6101C1.75884 17.6101 1 18.3689 1 19.305C1 20.2411 1.75884 20.9999 2.69492 20.9999Z" stroke="black" stroke-width="2" stroke-miterlimit="10" stroke-linecap="round" stroke-linejoin="round"/>
<path d="M11.0001 20.9999C11.9362 20.9999 12.695 20.2411 12.695 19.305C12.695 18.3689 11.9362 17.6101 11.0001 17.6101C10.064 17.6101 9.30518 18.3689 9.30518 19.305C9.30518 20.2411 10.064 20.9999 11.0001 20.9999Z" stroke="black" stroke-width="2" stroke-miterlimit="10" stroke-linecap="round" stroke-linejoin="round"/>
<path d="M19.305 4.38989V9.13566C19.305 10.0717 18.5461 10.8306 17.6101 10.8306H2.69482V17.6102" stroke="black" stroke-width="2" stroke-miterlimit="10" stroke-linecap="round" stroke-linejoin="round"/>
<path d="M2.69482 10.8306V4.38989" stroke="black" stroke-width="2" stroke-miterlimit="10" stroke-linecap="round" stroke-linejoin="round"/>
<path d="M11 4.38989V17.6102" stroke="black" stroke-width="2" stroke-miterlimit="10" stroke-linecap="round" stroke-linejoin="round"/>
<path d="M19.3053 20.9999C20.2413 20.9999 21.0002 20.2411 21.0002 19.305C21.0002 18.3689 20.2413 17.6101 19.3053 17.6101C18.3692 17.6101 17.6104 18.3689 17.6104 19.305C17.6104 20.2411 18.3692 20.9999 19.3053 20.9999Z" stroke="black" stroke-width="2" stroke-miterlimit="10" stroke-linecap="round" stroke-linejoin="round"/>
<path d="M19.3052 14.2205V17.6103" stroke="black" stroke-width="2" stroke-miterlimit="10" stroke-linecap="round" stroke-linejoin="round"/>
</svg>
